<?xml version="1.0" encoding="UTF-8"?>
<svg version="1.1" xmlns="http://www.w3.org/2000/svg" width="197" height="154">
<path d="M0 0 C1.98 0.99 1.98 0.99 4 2 C4.04630462 14.96928266 4.0818597 27.9385457 4.10362434 40.90789413 C4.11406934 46.92983669 4.12824168 52.95172277 4.15087891 58.97363281 C4.17258164 64.78319099 4.18456323 70.59269477 4.18975449 76.40229034 C4.19345485 78.6206981 4.20068058 80.83910283 4.21146011 83.05748749 C4.22594075 86.16046117 4.22797936 89.263209 4.22705078 92.36621094 C4.23424133 93.28690369 4.24143188 94.20759644 4.24884033 95.15618896 C4.246091 96.00310303 4.24334167 96.85001709 4.24050903 97.72259521 C4.24235262 98.45634243 4.24419621 99.19008965 4.24609566 99.94607162 C3.94579187 102.45242417 3.41833685 103.90096062 2 106 C-1.76820121 108.91525581 -4.59693388 109.37612545 -9.3001709 109.38095093 C-10.57035568 109.3894104 -11.84054047 109.39786987 -13.1492157 109.40658569 C-14.54934821 109.40075329 -15.94947946 109.39460882 -17.34960938 109.38818359 C-18.82990404 109.39225043 -20.31019567 109.39759295 -21.79048157 109.40411377 C-25.80493182 109.41777992 -29.81915055 109.41249168 -33.83360481 109.40297651 C-38.03665919 109.39537627 -42.23969386 109.40242654 -46.44274902 109.40713501 C-53.50076859 109.4125915 -60.55869396 109.40540376 -67.61669922 109.39111328 C-75.77436355 109.37478694 -83.93180293 109.38007553 -92.0894618 109.3965925 C-99.09597177 109.41021041 -106.10241405 109.41212554 -113.10893297 109.40427649 C-117.29252338 109.39960165 -121.47600808 109.39896991 -125.65959167 109.40888596 C-129.5929383 109.41755782 -133.52599517 109.41152988 -137.45931053 109.39420319 C-138.90206102 109.39023949 -140.34483593 109.39137042 -141.78757668 109.39799118 C-143.75831857 109.40620052 -145.72911381 109.39407596 -147.6998291 109.38095093 C-149.3534634 109.37925431 -149.3534634 109.37925431 -151.04050446 109.37752342 C-154.43814548 108.94410866 -156.30352234 108.09523969 -159 106 C-161.15492067 100.08416759 -161.25404445 94.51932611 -161.13525391 88.27929688 C-161.12579239 87.34178589 -161.11633087 86.4042749 -161.10658264 85.43835449 C-161.07312609 82.36494495 -161.02495114 79.29195759 -160.9765625 76.21875 C-160.95037254 74.07785112 -160.92510739 71.93694075 -160.90072632 69.79602051 C-160.83429918 64.18010836 -160.75535826 58.56444004 -160.67376709 52.94873047 C-160.59262804 47.21070667 -160.52338443 41.4725405 -160.453125 35.734375 C-160.31369302 24.48941274 -160.1610341 13.24467221 -160 2 C-157.63989258 1.41479492 -157.63989258 1.41479492 -155 1 C-152.76171875 2.36328125 -152.76171875 2.36328125 -150.6875 4.3125 C-149.99011719 4.94800781 -149.29273438 5.58351563 -148.57421875 6.23828125 C-147 8 -147 8 -147 10 C-146.43410156 10.24621094 -145.86820313 10.49242187 -145.28515625 10.74609375 C-142.60751742 12.21536224 -140.66956388 13.97752435 -138.4375 16.0625 C-134.87703072 19.33018473 -131.2606708 22.46479193 -127.5 25.5 C-123.9598317 28.36184235 -120.53776377 31.29341532 -117.1875 34.375 C-110.11009535 40.82230185 -102.45613217 46.56017868 -94.8828125 52.40625 C-93.51769531 53.47359375 -93.51769531 53.47359375 -92.125 54.5625 C-91.32320313 55.18253906 -90.52140625 55.80257812 -89.6953125 56.44140625 C-89.13585937 56.95574219 -88.57640625 57.47007813 -88 58 C-88 58.66 -88 59.32 -88 60 C-87.195625 60.309375 -86.39125 60.61875 -85.5625 60.9375 C-83 62 -83 62 -82 63 C-77.52995851 63.52912945 -75.54113428 63.36554306 -71.76171875 60.8125 C-70.72162546 59.89206346 -69.69691477 58.95398076 -68.6875 58 C-63.19425676 53 -63.19425676 53 -61 53 C-61 52.34 -61 51.68 -61 51 C-60.34 51 -59.68 51 -59 51 C-59 50.34 -59 49.68 -59 49 C-53.58823529 45 -53.58823529 45 -51 45 C-50.67 44.01 -50.34 43.02 -50 42 C-47.78515625 39.95703125 -47.78515625 39.95703125 -45.0625 37.8125 C-44.16660156 37.09707031 -43.27070313 36.38164063 -42.34765625 35.64453125 C-40 34 -40 34 -38 34 C-38 33.34 -38 32.68 -38 32 C-36.30725716 30.43567213 -34.54430148 28.94671428 -32.75 27.5 C-31.77546875 26.7059375 -30.8009375 25.911875 -29.796875 25.09375 C-27 23 -27 23 -24.765625 21.96875 C-22.46026381 20.70386156 -22.13893248 19.334162 -21 17 C-19.00390625 15.17578125 -19.00390625 15.17578125 -16.5625 13.3125 C-12.62234157 10.25815821 -8.72746127 7.16469975 -4.875 4 C-3.94429687 3.236875 -3.01359375 2.47375 -2.0546875 1.6875 C-1.03761719 0.8521875 -1.03761719 0.8521875 0 0 Z " fill="#489CD0" transform="translate(179,35)"/>
<path d="M0 0 C1.93051964 -0.01898094 1.93051964 -0.01898094 3.90003967 -0.03834534 C5.31906531 -0.02702994 6.73808694 -0.0152025 8.15710449 -0.00291443 C9.65710801 -0.00805459 11.15710549 -0.01533661 12.65708923 -0.02459717 C16.72540857 -0.04310748 20.79307233 -0.03017539 24.86136436 -0.01050687 C29.12047457 0.00588422 33.3795434 -0.0029339 37.63867188 -0.00802612 C44.79091864 -0.01254658 51.94290385 0.00331966 59.09509277 0.03126526 C67.36188953 0.06331706 75.62821455 0.06330134 83.8950448 0.04605049 C91.85021023 0.03018204 99.80520284 0.03692097 107.76036072 0.0539875 C111.14465439 0.06085686 114.52880948 0.05982677 117.9131012 0.05244255 C121.89907971 0.04477655 125.88452193 0.05691555 129.87040901 0.08429146 C131.33249889 0.09117316 132.79463887 0.0912755 134.25672722 0.08407593 C136.25375757 0.07537596 138.25085103 0.0937819 140.24780273 0.11352539 C141.36497429 0.11633231 142.48214584 0.11913923 143.63317108 0.12203121 C147.33564568 0.74864628 148.99267339 1.98823714 151.62390137 4.62818909 C152.78796387 8.04615784 152.78796387 8.04615784 152.62390137 11.62818909 C150.73662375 13.87599316 149.30295541 15.25122683 146.99890137 16.94068909 C146.46394043 17.36930237 145.92897949 17.79791565 145.37780762 18.23951721 C142.29141401 20.64630347 139.33146623 22.38084849 135.62390137 23.62818909 C135.62390137 24.28818909 135.62390137 24.94818909 135.62390137 25.62818909 C130.21213666 29.62818909 130.21213666 29.62818909 127.62390137 29.62818909 C127.62390137 30.28818909 127.62390137 30.94818909 127.62390137 31.62818909 C125.64390137 32.12318909 125.64390137 32.12318909 123.62390137 32.62818909 C123.62390137 33.28818909 123.62390137 33.94818909 123.62390137 34.62818909 C121.97390137 35.28818909 120.32390137 35.94818909 118.62390137 36.62818909 C118.62390137 37.28818909 118.62390137 37.94818909 118.62390137 38.62818909 C113.21213666 42.62818909 113.21213666 42.62818909 110.62390137 42.62818909 C110.62390137 43.28818909 110.62390137 43.94818909 110.62390137 44.62818909 C106.23928598 47.62818909 106.23928598 47.62818909 103.62390137 47.62818909 C103.62390137 48.28818909 103.62390137 48.94818909 103.62390137 49.62818909 C101.92579383 51.00716952 100.16354678 52.30778387 98.37390137 53.56568909 C97.39937012 54.25533752 96.42483887 54.94498596 95.42077637 55.65553284 C94.49780762 56.3065094 93.57483887 56.95748596 92.62390137 57.62818909 C91.88655762 58.20697815 91.14921387 58.78576721 90.38952637 59.38209534 C88.62390137 60.62818909 88.62390137 60.62818909 86.62390137 60.62818909 C86.62390137 61.28818909 86.62390137 61.94818909 86.62390137 62.62818909 C84.59327796 64.24852548 82.57667324 65.72920894 80.43640137 67.19068909 C79.85825684 67.60254456 79.2801123 68.01440002 78.68444824 68.43873596 C75.39641067 70.70878224 72.66299009 72.43875109 68.62390137 72.62818909 C66.49108887 71.92115784 66.49108887 71.92115784 64.49890137 70.81568909 C63.83632324 70.45861877 63.17374512 70.10154846 62.49108887 69.73365784 C60.83506033 68.7532058 59.22518572 67.69571199 57.62390137 66.62818909 C57.62390137 65.96818909 57.62390137 65.30818909 57.62390137 64.62818909 C56.88140137 64.36006409 56.13890137 64.09193909 55.37390137 63.81568909 C52.73328188 62.67542158 50.76837293 61.53438603 48.62390137 59.62818909 C48.62390137 58.96818909 48.62390137 58.30818909 48.62390137 57.62818909 C47.96390137 57.44256409 47.30390137 57.25693909 46.62390137 57.06568909 C43.92121946 55.77065401 42.47829982 54.72790143 40.31140137 52.75318909 C36.30485925 49.11917176 32.07742035 45.86365787 27.74890137 42.62818909 C27.05498291 42.10901917 26.36106445 41.58984924 25.64611816 41.0549469 C20.93261835 37.55098865 16.14895712 34.17271608 11.24890137 30.93287659 C10.71265137 30.50232971 10.17640137 30.07178284 9.62390137 29.62818909 C9.62390137 28.96818909 9.62390137 28.30818909 9.62390137 27.62818909 C8.96390137 27.62818909 8.30390137 27.62818909 7.62390137 27.62818909 C7.62390137 26.96818909 7.62390137 26.30818909 7.62390137 25.62818909 C6.92265137 25.38068909 6.22140137 25.13318909 5.49890137 24.87818909 C2.22875589 23.45638671 -0.51722063 21.7557262 -3.37609863 19.62818909 C-3.37609863 18.96818909 -3.37609863 18.30818909 -3.37609863 17.62818909 C-3.93297363 17.38068909 -4.48984863 17.13318909 -5.06359863 16.87818909 C-7.77580991 15.41212894 -10.01197228 13.59829438 -12.37609863 11.62818909 C-12.11187307 7.84095604 -11.63647004 5.95092241 -9.22382355 2.96041965 C-5.82418616 0.17618365 -4.33706025 0.00227616 0 0 Z " fill="#F6F4F3" transform="translate(30.3760986328125,14.371810913085938)"/>
<path d="M0 0 C1.31484375 -0.00644531 2.6296875 -0.01289063 3.984375 -0.01953125 C5.0043457 -0.0038208 5.0043457 -0.0038208 6.04492188 0.01220703 C8.12034681 0.03900242 10.19036676 0.01243363 12.265625 -0.01953125 C14.23789062 -0.00986328 14.23789062 -0.00986328 16.25 0 C17.44882812 0.00563965 18.64765625 0.0112793 19.8828125 0.01708984 C24.01908389 0.84247533 25.40839521 2.51903048 28.125 5.6640625 C30.2097722 7.3891093 32.29890162 9.07206558 34.4375 10.7265625 C35.34556396 11.43437866 35.34556396 11.43437866 36.27197266 12.15649414 C42.81020787 17.23260294 49.438632 22.18837743 56.07519531 27.13476562 C59.51366079 29.70010004 62.94394965 32.27632411 66.375 34.8515625 C70.12169759 37.6628393 73.86878917 40.47355325 77.62109375 43.27734375 C78.67425781 44.06496094 79.72742188 44.85257813 80.8125 45.6640625 C81.72386719 46.3446875 82.63523437 47.0253125 83.57421875 47.7265625 C85.341485 49.06892706 87.08641355 50.4410188 88.8125 51.8359375 C90.86685506 53.45998846 92.74280804 54.60531052 95.125 55.6640625 C94.00426138 56.50311815 92.87825453 57.33514081 91.75 58.1640625 C91.12351562 58.628125 90.49703125 59.0921875 89.8515625 59.5703125 C88.125 60.6640625 88.125 60.6640625 86.125 60.6640625 C86.125 61.3240625 86.125 61.9840625 86.125 62.6640625 C84.09437659 64.2843989 82.07777187 65.76508236 79.9375 67.2265625 C79.35935547 67.63841797 78.78121094 68.05027344 78.18554688 68.47460938 C74.8975093 70.74465566 72.16408872 72.4746245 68.125 72.6640625 C65.9921875 71.95703125 65.9921875 71.95703125 64 70.8515625 C63.33742188 70.49449219 62.67484375 70.13742188 61.9921875 69.76953125 C60.33615897 68.78907921 58.72628435 67.7315854 57.125 66.6640625 C57.125 66.0040625 57.125 65.3440625 57.125 64.6640625 C56.3825 64.3959375 55.64 64.1278125 54.875 63.8515625 C52.23438051 62.71129499 50.26947156 61.57025944 48.125 59.6640625 C48.125 59.0040625 48.125 58.3440625 48.125 57.6640625 C47.465 57.4784375 46.805 57.2928125 46.125 57.1015625 C43.42231809 55.80652742 41.97939846 54.76377484 39.8125 52.7890625 C35.80595788 49.15504517 31.57851899 45.89953128 27.25 42.6640625 C26.55608154 42.14489258 25.86216309 41.62572266 25.1472168 41.09082031 C20.43371698 37.58686206 15.65005575 34.20858949 10.75 30.96875 C10.21375 30.53820312 9.6775 30.10765625 9.125 29.6640625 C9.125 29.0040625 9.125 28.3440625 9.125 27.6640625 C8.465 27.6640625 7.805 27.6640625 7.125 27.6640625 C7.125 27.0040625 7.125 26.3440625 7.125 25.6640625 C6.42375 25.4165625 5.7225 25.1690625 5 24.9140625 C1.72985452 23.49226012 -1.016122 21.79159962 -3.875 19.6640625 C-3.875 19.0040625 -3.875 18.3440625 -3.875 17.6640625 C-4.431875 17.4165625 -4.98875 17.1690625 -5.5625 16.9140625 C-8.27471127 15.44800235 -10.51087365 13.63416779 -12.875 11.6640625 C-12.61229288 7.89859384 -12.131451 5.98633828 -9.75390625 2.99853516 C-6.22967842 0.1407785 -4.48885069 0.02111691 0 0 Z " fill="#DAA173" transform="translate(30.875,14.3359375)"/>
<path d="M0 0 C0.99 0.33 1.98 0.66 3 1 C3 32.02 3 63.04 3 95 C-0.79359596 93.10320202 -3.64751988 90.92826275 -6.8125 88.1875 C-7.37437012 87.70611572 -7.93624023 87.22473145 -8.51513672 86.72875977 C-10.3470729 85.15669588 -12.17355806 83.57844187 -14 82 C-15.26678366 80.91129143 -16.53371183 79.82275098 -17.80078125 78.734375 C-23.51845719 73.81108438 -29.19373854 68.85511202 -34.75 63.75 C-39.28728187 59.58685682 -43.98539973 55.66883235 -48.78515625 51.8125 C-51 50 -51 50 -53 48 C-53 47.01 -53 46.02 -53 45 C-52.34 45 -51.68 45 -51 45 C-50.67 44.01 -50.34 43.02 -50 42 C-47.78515625 39.95703125 -47.78515625 39.95703125 -45.0625 37.8125 C-43.71865234 36.73935547 -43.71865234 36.73935547 -42.34765625 35.64453125 C-40 34 -40 34 -38 34 C-38 33.34 -38 32.68 -38 32 C-36.30725716 30.43567213 -34.54430148 28.94671428 -32.75 27.5 C-31.77546875 26.7059375 -30.8009375 25.911875 -29.796875 25.09375 C-27 23 -27 23 -24.765625 21.96875 C-22.46026381 20.70386156 -22.13893248 19.334162 -21 17 C-19.00390625 15.17578125 -19.00390625 15.17578125 -16.5625 13.3125 C-11.68579116 9.55573302 -7.003767 5.61620714 -2.34765625 1.58984375 C-1.57292969 1.06519531 -0.79820312 0.54054687 0 0 Z " fill="#E7E7E8" transform="translate(179,35)"/>
<path d="M0 0 C4.6891871 0.13791727 7.2659249 2.5953762 10.64453125 5.52734375 C12 7 12 7 12 9 C12.56589844 9.24621094 13.13179687 9.49242187 13.71484375 9.74609375 C16.39248258 11.21536224 18.33043612 12.97752435 20.5625 15.0625 C24.12296928 18.33018473 27.7393292 21.46479193 31.5 24.5 C35.16586259 27.4626788 38.70884495 30.50716759 42.1875 33.6875 C46.27055831 37.41124918 50.50046501 40.79502396 55 44 C54.44896276 47.78211924 52.99783255 49.24917059 50.125 51.6875 C49.30644531 52.38875 48.48789063 53.09 47.64453125 53.8125 C45.0501767 55.9584949 42.43398509 58.0747772 39.8125 60.1875 C35.36496657 63.78906903 31.16405148 67.5804599 27 71.5 C21.98188756 76.22313018 16.86594614 80.68467229 11.48046875 84.98828125 C8.4070167 87.48092346 5.47484309 90.11142245 2.55859375 92.78515625 C1 94 1 94 -1 94 C-1.02312178 81.89158056 -1.04091424 69.78316633 -1.05181217 57.67472935 C-1.05704136 52.05292038 -1.06413966 46.43112647 -1.07543945 40.80932617 C-1.08626706 35.38881723 -1.09227656 29.9683228 -1.09487724 24.54780388 C-1.09673172 22.47485055 -1.10035277 20.40189806 -1.10573006 18.32895088 C-1.1129388 15.43616107 -1.11399101 12.54343204 -1.11352539 9.65063477 C-1.11712067 8.78461136 -1.12071594 7.91858795 -1.12442017 7.02632141 C-1.11405216 1.11405216 -1.11405216 1.11405216 0 0 Z " fill="#E5E6E7" transform="translate(20,36)"/>
<path d="M0 0 C0.33 0 0.66 0 1 0 C1.04630462 12.96928266 1.0818597 25.9385457 1.10362434 38.90789413 C1.11406934 44.92983669 1.12824168 50.95172277 1.15087891 56.97363281 C1.17258164 62.78319099 1.18456323 68.59269477 1.18975449 74.40229034 C1.19345485 76.6206981 1.20068058 78.83910283 1.21146011 81.05748749 C1.22594075 84.16046117 1.22797936 87.263209 1.22705078 90.36621094 C1.23424133 91.28690369 1.24143188 92.20759644 1.24884033 93.15618896 C1.246091 94.00310303 1.24334167 94.85001709 1.24050903 95.72259521 C1.24235262 96.45634243 1.24419621 97.19008965 1.24609566 97.94607162 C0.94579187 100.45242417 0.41833685 101.90096062 -1 104 C-4.76820121 106.91525581 -7.59693388 107.37612545 -12.3001709 107.38095093 C-13.57035568 107.3894104 -14.84054047 107.39786987 -16.1492157 107.40658569 C-17.54934821 107.40075329 -18.94947946 107.39460882 -20.34960938 107.38818359 C-21.82990404 107.39225043 -23.31019567 107.39759295 -24.79048157 107.40411377 C-28.80493182 107.41777992 -32.81915055 107.41249168 -36.83360481 107.40297651 C-41.03665919 107.39537627 -45.23969386 107.40242654 -49.44274902 107.40713501 C-56.50076859 107.4125915 -63.55869396 107.40540376 -70.61669922 107.39111328 C-78.77436355 107.37478694 -86.93180293 107.38007553 -95.0894618 107.3965925 C-102.09597177 107.41021041 -109.10241405 107.41212554 -116.10893297 107.40427649 C-120.29252338 107.39960165 -124.47600808 107.39896991 -128.65959167 107.40888596 C-132.5929383 107.41755782 -136.52599517 107.41152988 -140.45931053 107.39420319 C-141.90206102 107.39023949 -143.34483593 107.39137042 -144.78757668 107.39799118 C-146.75831857 107.40620052 -148.72911381 107.39407596 -150.6998291 107.38095093 C-152.3534634 107.37925431 -152.3534634 107.37925431 -154.04050446 107.37752342 C-157.39971982 106.94901037 -159.28973394 105.99837033 -162 104 C-162.9609375 102.0625 -162.9609375 102.0625 -163.375 100 C-163.52710938 99.319375 -163.67921875 98.63875 -163.8359375 97.9375 C-164 96 -164 96 -163 93 C-161.28515625 91.4921875 -161.28515625 91.4921875 -159.0625 89.875 C-155.59336496 87.26629813 -152.3271536 84.55561098 -149.125 81.625 C-145.75207367 78.54266425 -142.31675432 75.6054954 -138.75 72.75 C-133.5654932 68.56251374 -128.69728303 64.09334647 -123.85839844 59.51660156 C-114.83194535 51 -114.83194535 51 -112 51 C-111.67 50.01 -111.34 49.02 -111 48 C-109.35 46.68 -107.7 45.36 -106 44 C-102.37 46.97 -98.74 49.94 -95 53 C-99 54 -99 54 -102 54 C-102.433125 54.721875 -102.86625 55.44375 -103.3125 56.1875 C-105.44693212 59.74488687 -107.67784951 61.52605814 -111 64 C-111.66 64 -112.32 64 -113 64 C-113.38285156 64.86625 -113.38285156 64.86625 -113.7734375 65.75 C-116.59836626 70.93203492 -121.2419192 75.50961868 -126.75 77.6875 C-133.01574008 80.4310785 -137.20664583 86.43368336 -141.6328125 91.45703125 C-144.29945736 94.46653045 -147.03269117 97.28522809 -150 100 C-150.99 100 -151.98 100 -153 100 C-153 100.66 -153 101.32 -153 102 C-154.485 102.99 -154.485 102.99 -156 104 C-156 104.66 -156 105.32 -156 106 C-136.77224178 105.89280143 -117.54452381 105.7800473 -98.31683731 105.66066074 C-89.38929807 105.60535864 -80.46175484 105.55188157 -71.53417969 105.50268555 C-63.7538389 105.45980683 -55.97352719 105.4135195 -48.19323134 105.36312145 C-44.0728025 105.33655025 -39.95237931 105.3116979 -35.83191681 105.29092598 C-31.95452447 105.27132559 -28.0771873 105.24717164 -24.19984436 105.21950912 C-22.77603407 105.21015671 -21.35221168 105.20247495 -19.92838287 105.19658089 C-17.98545433 105.18828904 -16.04255715 105.17342358 -14.09967041 105.15821838 C-13.01195469 105.15176583 -11.92423897 105.14531328 -10.80356216 105.1386652 C-8.36683451 105.01814377 -6.32487794 104.7038978 -4 104 C-3.46778703 98.73290253 -3.46778703 98.73290253 -5.375 94.125 C-6.179375 93.568125 -6.179375 93.568125 -7 93 C-7.66 92.34 -8.32 91.68 -9 91 C-10.299375 90.2575 -10.299375 90.2575 -11.625 89.5 C-12.40875 89.005 -13.1925 88.51 -14 88 C-14 87.34 -14 86.68 -14 86 C-14.66 85.67 -15.32 85.34 -16 85 C-16.33 85.99 -16.66 86.98 -17 88 C-17.99 87.67 -18.98 87.34 -20 87 C-20.042721 85.33388095 -20.04063832 83.66617115 -20 82 C-19.67 81.67 -19.34 81.34 -19 81 C-19.9075 80.443125 -20.815 79.88625 -21.75 79.3125 C-24.86904678 77.09317825 -26.65533933 74.96990352 -29 72 C-31.00136244 70.57944932 -31.00136244 70.57944932 -33 70 C-33.99 70.495 -33.99 70.495 -35 71 C-35.12375 70.21625 -35.2475 69.4325 -35.375 68.625 C-35.79117993 65.85942178 -35.79117993 65.85942178 -38 64 C-40.57061311 63.35232207 -40.57061311 63.35232207 -43 63 C-43.495 60.03 -43.495 60.03 -44 57 C-44.56589844 56.89042969 -45.13179688 56.78085938 -45.71484375 56.66796875 C-46.81505859 56.43013672 -46.81505859 56.43013672 -47.9375 56.1875 C-48.66839844 56.03667969 -49.39929688 55.88585937 -50.15234375 55.73046875 C-50.76207031 55.48941406 -51.37179688 55.24835938 -52 55 C-52.33 54.01 -52.66 53.02 -53 52 C-56.73437848 51.12132271 -60.16774573 50.91087781 -64 51 C-64 50.34 -64 49.68 -64 49 C-63.34 49 -62.68 49 -62 49 C-62 48.34 -62 47.68 -62 47 C-60.02 46.01 -58.04 45.02 -56 44 C-55.16275391 45.11181641 -55.16275391 45.11181641 -54.30859375 46.24609375 C-52.05561814 48.93365349 -49.82040569 50.9100894 -47.0625 53.0625 C-42.70398796 56.55047035 -38.56975372 60.18052525 -34.5 64 C-29.70044366 68.4951597 -24.7612257 72.72352931 -19.62890625 76.83984375 C-16.12635461 79.7178691 -12.80158605 82.77093713 -9.484375 85.859375 C-6.4864348 88.44250586 -3.22018615 90.69986704 0 93 C0 62.31 0 31.62 0 0 Z " fill="#3879A1" transform="translate(182,37)"/>
<path d="M0 0 C0.33 0 0.66 0 1 0 C1.04630462 12.96928266 1.0818597 25.9385457 1.10362434 38.90789413 C1.11406934 44.92983669 1.12824168 50.95172277 1.15087891 56.97363281 C1.17258164 62.78319099 1.18456323 68.59269477 1.18975449 74.40229034 C1.19345485 76.6206981 1.20068058 78.83910283 1.21146011 81.05748749 C1.22594075 84.16046117 1.22797936 87.263209 1.22705078 90.36621094 C1.23424133 91.28690369 1.24143188 92.20759644 1.24884033 93.15618896 C1.246091 94.00310303 1.24334167 94.85001709 1.24050903 95.72259521 C1.24235262 96.45634243 1.24419621 97.19008965 1.24609566 97.94607162 C0.94579187 100.45242417 0.41833685 101.90096062 -1 104 C-4.78080639 106.92990703 -7.61302275 107.3725361 -12.33381653 107.36076355 C-13.61122711 107.36488754 -14.8886377 107.36901154 -16.20475769 107.3732605 C-17.61282562 107.36264441 -19.02089139 107.35174 -20.42895508 107.34057617 C-21.91735822 107.3397296 -23.40576262 107.34020562 -24.89416504 107.34190369 C-28.92897429 107.34276391 -32.96351562 107.32513385 -36.99826264 107.30418181 C-41.21698283 107.28541952 -45.43570925 107.28366493 -49.65446472 107.28010559 C-57.64065803 107.27078381 -65.62672803 107.24616823 -73.61286706 107.21605712 C-82.70590022 107.18251726 -91.79893929 107.16602814 -100.89201891 107.15097082 C-119.59474916 107.11961879 -138.29736467 107.0668557 -157 107 C-157 106.67 -157 106.34 -157 106 C-156.23578106 105.99576806 -155.47156212 105.99153612 -154.68418503 105.98717594 C-136.09798362 105.88391808 -117.51182075 105.77528759 -98.92568588 105.66066074 C-89.9376124 105.60535819 -80.94953494 105.55188104 -71.96142578 105.50268555 C-64.12834745 105.45980738 -56.29529799 105.41352019 -48.4622643 105.36312145 C-44.31388972 105.3365498 -40.16552075 105.31169744 -36.01711273 105.29092598 C-32.1134558 105.27132618 -28.20985367 105.2471724 -24.3062458 105.21950912 C-22.8727601 105.2101564 -21.43926238 105.20247475 -20.00575829 105.19658089 C-18.04969272 105.18828957 -16.09365831 105.17342411 -14.13763428 105.15821838 C-12.49499918 105.14853956 -12.49499918 105.14853956 -10.81917953 105.1386652 C-8.37578456 105.01848348 -6.33071461 104.70670082 -4 104 C-3.46778703 98.73290253 -3.46778703 98.73290253 -5.375 94.125 C-6.179375 93.568125 -6.179375 93.568125 -7 93 C-7.66 92.34 -8.32 91.68 -9 91 C-10.299375 90.2575 -10.299375 90.2575 -11.625 89.5 C-12.40875 89.005 -13.1925 88.51 -14 88 C-14 87.34 -14 86.68 -14 86 C-14.66 85.67 -15.32 85.34 -16 85 C-16.33 85.99 -16.66 86.98 -17 88 C-17.99 87.67 -18.98 87.34 -20 87 C-20.042721 85.33388095 -20.04063832 83.66617115 -20 82 C-19.67 81.67 -19.34 81.34 -19 81 C-19.9075 80.443125 -20.815 79.88625 -21.75 79.3125 C-24.86904678 77.09317825 -26.65533933 74.96990352 -29 72 C-31.00136244 70.57944932 -31.00136244 70.57944932 -33 70 C-33.99 70.495 -33.99 70.495 -35 71 C-35.12375 70.21625 -35.2475 69.4325 -35.375 68.625 C-35.79117993 65.85942178 -35.79117993 65.85942178 -38 64 C-40.57061311 63.35232207 -40.57061311 63.35232207 -43 63 C-43.495 60.03 -43.495 60.03 -44 57 C-44.56589844 56.89042969 -45.13179688 56.78085938 -45.71484375 56.66796875 C-46.81505859 56.43013672 -46.81505859 56.43013672 -47.9375 56.1875 C-48.66839844 56.03667969 -49.39929688 55.88585937 -50.15234375 55.73046875 C-50.76207031 55.48941406 -51.37179688 55.24835938 -52 55 C-52.33 54.01 -52.66 53.02 -53 52 C-56.73437848 51.12132271 -60.16774573 50.91087781 -64 51 C-64 50.34 -64 49.68 -64 49 C-63.34 49 -62.68 49 -62 49 C-62 48.34 -62 47.68 -62 47 C-60.02 46.01 -58.04 45.02 -56 44 C-55.16275391 45.11181641 -55.16275391 45.11181641 -54.30859375 46.24609375 C-52.05561814 48.93365349 -49.82040569 50.9100894 -47.0625 53.0625 C-42.70398796 56.55047035 -38.56975372 60.18052525 -34.5 64 C-29.70044366 68.4951597 -24.7612257 72.72352931 -19.62890625 76.83984375 C-16.12635461 79.7178691 -12.80158605 82.77093713 -9.484375 85.859375 C-6.4864348 88.44250586 -3.22018615 90.69986704 0 93 C0 62.31 0 31.62 0 0 Z " fill="#425E73" transform="translate(182,37)"/>
<path d="M0 0 C0.66 0.33 1.32 0.66 2 1 C-0.42526722 3.51212252 -2.86712007 6.00746398 -5.3125 8.5 C-6.34793945 9.57314453 -6.34793945 9.57314453 -7.40429688 10.66796875 C-8.07138672 11.34472656 -8.73847656 12.02148438 -9.42578125 12.71875 C-10.03848877 13.34716797 -10.65119629 13.97558594 -11.2824707 14.62304688 C-13 16 -13 16 -16 16 C-16 16.66 -16 17.32 -16 18 C-16.99 18.66 -17.98 19.32 -19 20 C-19 20.66 -19 21.32 -19 22 C-22.25724605 21.43840585 -24.03790401 20.70956113 -26 18 C-26.6875 14.8125 -26.6875 14.8125 -27 12 C-25.68 11.67 -24.36 11.34 -23 11 C-23 10.34 -23 9.68 -23 9 C-20.8125 7.5625 -20.8125 7.5625 -18 6 C-14.35056462 4.12987508 -14.35056462 4.12987508 -12 1 C-11.071875 1.165 -10.14375 1.33 -9.1875 1.5 C-4.2982122 2.29950584 -4.2982122 2.29950584 0 0 Z " fill="#3E82AE" transform="translate(45,121)"/>
<path d="M0 0 C2.475 1.98 2.475 1.98 5 4 C3.02 4.66 1.04 5.32 -1 6 C-0.505 6.99 -0.505 6.99 0 8 C-0.9375 10.125 -0.9375 10.125 -2 12 C-2.495 11.01 -2.495 11.01 -3 10 C-3.66 10 -4.32 10 -5 10 C-5 10.66 -5 11.32 -5 12 C-5.928125 12.12375 -5.928125 12.12375 -6.875 12.25 C-9.18437567 12.81258459 -9.18437567 12.81258459 -10.25 15.0625 C-10.4975 15.701875 -10.745 16.34125 -11 17 C-11.66 17 -12.32 17 -13 17 C-13.33 17.66 -13.66 18.32 -14 19 C-14.66 19.28875 -15.32 19.5775 -16 19.875 C-16.66 20.24625 -17.32 20.6175 -18 21 C-18.144375 21.639375 -18.28875 22.27875 -18.4375 22.9375 C-19 25 -19 25 -21.3125 26.6875 C-24 28 -24 28 -26.1875 28.4375 C-28.21995468 28.8486428 -28.21995468 28.8486428 -29.25 31.0625 C-29.4975 31.701875 -29.745 32.34125 -30 33 C-30.99 33 -31.98 33 -33 33 C-33.20625 33.598125 -33.4125 34.19625 -33.625 34.8125 C-35.49696422 37.7906249 -37.89516588 38.44758294 -41 40 C-41.69937532 41.31647119 -42.36729133 42.65022151 -43 44 C-45.5 45.625 -45.5 45.625 -48 47 C-48.66 47.66 -49.32 48.32 -50 49 C-50.99 49 -51.98 49 -53 49 C-53 49.66 -53 50.32 -53 51 C-54.485 51.495 -54.485 51.495 -56 52 C-56 51.01 -56 50.02 -56 49 C-54.3828125 47.4921875 -54.3828125 47.4921875 -52.125 45.875 C-48.62485457 43.27176683 -45.34088166 40.57289152 -42.125 37.625 C-38.75207367 34.54266425 -35.31675432 31.6054954 -31.75 28.75 C-26.5654932 24.56251374 -21.69728303 20.09334647 -16.85839844 15.51660156 C-7.83194535 7 -7.83194535 7 -5 7 C-4.67 6.01 -4.34 5.02 -4 4 C-2.70644173 2.62804426 -1.37701298 1.28817344 0 0 Z " fill="#427797" transform="translate(75,81)"/>
<path d="M0 0 C2.1640625 0.77734375 2.1640625 0.77734375 4.625 1.9375 C5.44226563 2.31777344 6.25953125 2.69804688 7.1015625 3.08984375 C7.72804687 3.39019531 8.35453125 3.69054687 9 4 C9 4.33 9 4.66 9 5 C5.37471432 5.20140476 3.13498292 4.85776765 0 3 C-0.33644531 3.82564453 -0.33644531 3.82564453 -0.6796875 4.66796875 C-2.41093976 7.72583148 -4.62237725 9.84821826 -7.125 12.3125 C-7.6185498 12.79960449 -8.11209961 13.28670898 -8.62060547 13.78857422 C-11.97569922 17.07397437 -15.43779771 20.19227243 -19.015625 23.23046875 C-22.21344364 26.08206687 -25.15394985 29.18504523 -28.1171875 32.27734375 C-30 34 -30 34 -32 34 C-32 33.34 -32 32.68 -32 32 C-32.99 31.67 -33.98 31.34 -35 31 C-32.24067627 27.89576081 -30.00003082 25.86441198 -26.1875 24.1875 C-21.11389237 21.84287829 -17.74934286 18.04862522 -14 14 C-11.38587119 11.29105823 -8.54860399 8.9585516 -5.62109375 6.59765625 C-3.86027659 4.86229669 -3.07255036 3.20494259 -2 1 C-1.34 0.67 -0.68 0.34 0 0 Z M-34 34 C-32 35 -32 35 -32 35 Z " fill="#4289B7" transform="translate(82,89)"/>
<path d="M0 0 C4.71493886 3.97389281 9.26723061 8.07987233 13.75 12.3125 C18.87232721 17.11164335 24.10047665 21.66284519 29.578125 26.0546875 C32.78444359 28.63008534 35.8924326 31.30677492 39 34 C37.19921875 34.64453125 37.19921875 34.64453125 35 35 C29.50769231 31.01538462 29.50769231 31.01538462 28 28 C26.0998823 26.75825204 26.0998823 26.75825204 24 26 C23.34 26.33 22.68 26.66 22 27 C21.87625 26.21625 21.7525 25.4325 21.625 24.625 C21.20882007 21.85942178 21.20882007 21.85942178 19 20 C16.42938689 19.35232207 16.42938689 19.35232207 14 19 C13.67 17.02 13.34 15.04 13 13 C12.43410156 12.89042969 11.86820313 12.78085938 11.28515625 12.66796875 C10.55167969 12.50941406 9.81820312 12.35085937 9.0625 12.1875 C8.33160156 12.03667969 7.60070312 11.88585937 6.84765625 11.73046875 C6.23792969 11.48941406 5.62820312 11.24835938 5 11 C4.67 10.01 4.34 9.02 4 8 C0.26562152 7.12132271 -3.16774573 6.91087781 -7 7 C-7 6.34 -7 5.68 -7 5 C-6.34 5 -5.68 5 -5 5 C-5 4.34 -5 3.68 -5 3 C-2.5 1.375 -2.5 1.375 0 0 Z " fill="#427294" transform="translate(125,81)"/>
<path d="M0 0 C4.31687378 0.35001679 6.19275066 1.77686187 9 5 C8.34 6.32 7.68 7.64 7 9 C6.34 8.34 5.68 7.68 5 7 C3.68 7.33 2.36 7.66 1 8 C1 36.38 1 64.76 1 94 C0.34 94 -0.32 94 -1 94 C-1.02312178 81.89158056 -1.04091424 69.78316633 -1.05181217 57.67472935 C-1.05704136 52.05292038 -1.06413966 46.43112647 -1.07543945 40.80932617 C-1.08626706 35.38881723 -1.09227656 29.9683228 -1.09487724 24.54780388 C-1.09673172 22.47485055 -1.10035277 20.40189806 -1.10573006 18.32895088 C-1.1129388 15.43616107 -1.11399101 12.54343204 -1.11352539 9.65063477 C-1.11712067 8.78461136 -1.12071594 7.91858795 -1.12442017 7.02632141 C-1.11405216 1.11405216 -1.11405216 1.11405216 0 0 Z " fill="#BFC1C5" transform="translate(20,36)"/>
<path d="M0 0 C1.65 1.32 3.3 2.64 5 4 C3.02 4.66 1.04 5.32 -1 6 C-0.67 6.66 -0.34 7.32 0 8 C-0.9375 10.125 -0.9375 10.125 -2 12 C-2.33 11.34 -2.66 10.68 -3 10 C-3.66 10 -4.32 10 -5 10 C-5 10.66 -5 11.32 -5 12 C-5.928125 12.12375 -5.928125 12.12375 -6.875 12.25 C-9.18437567 12.81258459 -9.18437567 12.81258459 -10.25 15.0625 C-10.4975 15.701875 -10.745 16.34125 -11 17 C-11.66 17 -12.32 17 -13 17 C-13.33 17.66 -13.66 18.32 -14 19 C-14.66 19.28875 -15.32 19.5775 -16 19.875 C-18.20005805 20.8234856 -18.20005805 20.8234856 -18.75 23.125 C-18.8325 23.74375 -18.915 24.3625 -19 25 C-19.99 25 -20.98 25 -22 25 C-18.93249877 17.11213968 -13.60505695 12.11629808 -7 7 C-6.34 7 -5.68 7 -5 7 C-4.67 6.01 -4.34 5.02 -4 4 C-2.70644173 2.62804426 -1.37701298 1.28817344 0 0 Z " fill="#3D7394" transform="translate(75,81)"/>
<path d="M0 0 C8.03628775 1.25008921 14.09703454 6.89415763 19.578125 12.66015625 C22.72196522 15.62262107 25.50758786 16.24977683 29.75 16.125 C30.94882813 16.09792969 30.94882813 16.09792969 32.171875 16.0703125 C32.77515625 16.04710938 33.3784375 16.02390625 34 16 C34 15.01 34 14.02 34 13 C35.98 13 37.96 13 40 13 C31.55172414 20 31.55172414 20 27.1875 20 C23.03820431 18.69826018 19.38168611 16.75513006 16 14 C16 13.34 16 12.68 16 12 C15.2575 11.731875 14.515 11.46375 13.75 11.1875 C11.10938051 10.04723249 9.14447156 8.90619694 7 7 C7 6.34 7 5.68 7 5 C6.21625 4.731875 5.4325 4.46375 4.625 4.1875 C2 3 2 3 0 0 Z " fill="#A5866C" transform="translate(72,67)"/>
<path d="M0 0 C5.76171875 -0.48828125 5.76171875 -0.48828125 8 0 C9.72608144 1.60505403 11.38391382 3.28424331 13 5 C15.23422163 6.90737911 17.55263965 8.70155609 19.875 10.5 C20.46152344 10.96019531 21.04804687 11.42039062 21.65234375 11.89453125 C25.69037473 15.0450829 29.81584121 18.04647615 34 21 C31 22 31 22 27.625 20.375 C24.26540177 18.33802255 21.7400365 15.81409154 19 13 C17.9790625 12.505 17.9790625 12.505 16.9375 12 C14.21957534 10.59720018 12.89528184 8.36910229 11 6 C8.88339573 4.68834743 8.88339573 4.68834743 7 4 C7 3.34 7 2.68 7 2 C4.69 1.67 2.38 1.34 0 1 C0 0.67 0 0.34 0 0 Z " fill="#D3A988" transform="translate(46,15)"/>
<path d="M0 0 C2.97 1.98 2.97 1.98 6 4 C5.91306859 5.79258558 5.80489496 7.58415144 5.6875 9.375 C5.62949219 10.37273437 5.57148438 11.37046875 5.51171875 12.3984375 C5.34285156 13.25695312 5.17398438 14.11546875 5 15 C2 17 2 17 -0.1875 16.625 C-1.0846875 16.315625 -1.0846875 16.315625 -2 16 C-0.68 15.67 0.64 15.34 2 15 C2 12.36 2 9.72 2 7 C1.34 6.67 0.68 6.34 0 6 C0 4.02 0 2.04 0 0 Z " fill="#488AB2" transform="translate(176,126)"/>
<path d="M0 0 C3.63 0.33 7.26 0.66 11 1 C10.67 2.65 10.34 4.3 10 6 C10.61875 6.2475 11.2375 6.495 11.875 6.75 C14.35068687 8.20628639 14.95125002 9.37812506 16 12 C15.34 12 14.68 12 14 12 C14 11.34 14 10.68 14 10 C13.29875 9.7525 12.5975 9.505 11.875 9.25 C8.60485452 7.82819762 5.858878 6.12753712 3 4 C3 3.34 3 2.68 3 2 C2.01 1.67 1.02 1.34 0 1 C0 0.67 0 0.34 0 0 Z " fill="#BB9373" transform="translate(24,30)"/>
<path d="M0 0 C4.31392226 0.4793247 6.16569547 1.7457985 9 5 C8.34 6.32 7.68 7.64 7 9 C6.34 8.34 5.68 7.68 5 7 C2.39719432 7.32041397 2.39719432 7.32041397 0 8 C0 5.36 0 2.72 0 0 Z " fill="#D1D1D3" transform="translate(20,36)"/>
<path d="M0 0 C7.45385418 1.15948843 12.68390635 5.84733057 18 11 C18 11.66 18 12.32 18 13 C13.89160936 11.54997977 10.49655387 9.6020866 7 7 C7 6.34 7 5.68 7 5 C6.21625 4.731875 5.4325 4.46375 4.625 4.1875 C2 3 2 3 0 0 Z " fill="#B89772" transform="translate(72,67)"/>
<path d="M0 0 C0.99 0.33 1.98 0.66 3 1 C2.38125 1.7425 1.7625 2.485 1.125 3.25 C-0.60437281 5.48801188 -1.86106661 7.43739987 -3 10 C-3.33 9.34 -3.66 8.68 -4 8 C-4.99 8.66 -5.98 9.32 -7 10 C-7.66 10 -8.32 10 -9 10 C-9.33 10.66 -9.66 11.32 -10 12 C-10.99 11.67 -11.98 11.34 -13 11 C-12.34 11 -11.68 11 -11 11 C-10.67 10.01 -10.34 9.02 -10 8 C-7.8203125 5.921875 -7.8203125 5.921875 -5.125 3.75 C-4.24070313 3.02296875 -3.35640625 2.2959375 -2.4453125 1.546875 C-1.63835937 1.03640625 -0.83140625 0.5259375 0 0 Z " fill="#CDCDD0" transform="translate(139,69)"/>
<path d="M0 0 C2.31 0.66 4.62 1.32 7 2 C7 2.66 7 3.32 7 4 C8.32 4.66 9.64 5.32 11 6 C11 6.66 11 7.32 11 8 C11.78375 8.12375 12.5675 8.2475 13.375 8.375 C16 9 16 9 18 11 C17.34 11.66 16.68 12.32 16 13 C4.29384966 4.738041 4.29384966 4.738041 0 0 Z " fill="#F9E9DB" transform="translate(63,23)"/>
<path d="M0 0 C0.99 0 1.98 0 3 0 C3 0.66 3 1.32 3 2 C3.66 2 4.32 2 5 2 C5 2.66 5 3.32 5 4 C5.7425 4.2475 6.485 4.495 7.25 4.75 C10.23023087 6.10465039 11.89919252 7.5101541 14 10 C14 10.66 14 11.32 14 12 C10.5222507 10.43988817 7.72775973 8.36827674 4.75 6 C3.85796875 5.29875 2.9659375 4.5975 2.046875 3.875 C1.37140625 3.25625 0.6959375 2.6375 0 2 C0 1.34 0 0.68 0 0 Z " fill="#D5E7F2" transform="translate(167,117)"/>
<path d="M0 0 C0.66 0 1.32 0 2 0 C2 2 2 2 -0.375 4.5 C-1.674375 5.7375 -1.674375 5.7375 -3 7 C-3.66 7.66 -4.32 8.32 -5 9 C-5.99 9 -6.98 9 -8 9 C-8 9.66 -8 10.32 -8 11 C-8.99 11.33 -9.98 11.66 -11 12 C-11 11.01 -11 10.02 -11 9 C-9.1015625 7.24609375 -9.1015625 7.24609375 -6.625 5.4375 C-4.26242203 3.69369245 -2.07750196 2.07750196 0 0 Z " fill="#507F9D" transform="translate(30,121)"/>
<path d="M0 0 C0.99 0.66 1.98 1.32 3 2 C2.34 2 1.68 2 1 2 C1 2.66 1 3.32 1 4 C-4.41176471 8 -4.41176471 8 -7 8 C-7.33 8.66 -7.66 9.32 -8 10 C-8 8.68 -8 7.36 -8 6 C-7.34 6 -6.68 6 -6 6 C-6 5.34 -6 4.68 -6 4 C-4.03852126 2.61061923 -2.03833424 1.2739589 0 0 Z " fill="#BBBABE" transform="translate(165,36)"/>
<path d="M0 0 C0.66 0.33 1.32 0.66 2 1 C-1.63 4.63 -5.26 8.26 -9 12 C-9.66 11.67 -10.32 11.34 -11 11 C-7.6189962 6.86378916 -4.33409466 3.18683431 0 0 Z " fill="#408CBC" transform="translate(41,125)"/>
<path d="M0 0 C0.99 0.33 1.98 0.66 3 1 C1.88121617 2.17262904 0.75476949 3.33795138 -0.375 4.5 C-1.00148438 5.1496875 -1.62796875 5.799375 -2.2734375 6.46875 C-4 8 -4 8 -6 8 C-5.66354211 4.85972637 -4.94763914 3.94901705 -2.625 1.6875 C-1.75875 1.130625 -0.8925 0.57375 0 0 Z M-8 8 C-6 9 -6 9 -6 9 Z " fill="#4392C3" transform="translate(56,115)"/>
<path d="M0 0 C2.64 0.33 5.28 0.66 8 1 C3.14473684 6.25986842 3.14473684 6.25986842 -1 7 C-1.33 7.66 -1.66 8.32 -2 9 C-1.49396008 6.83125748 -1.00016187 5.00032373 0 3 C0.99 3 1.98 3 3 3 C3 2.34 3 1.68 3 1 C2.01 0.67 1.02 0.34 0 0 Z " fill="#AA8972" transform="translate(118,68)"/>
<path d="M0 0 C0.66 0.33 1.32 0.66 2 1 C2 1.66 2 2.32 2 3 C2.33 3.66 2.66 4.32 3 5 C1.35 4.67 -0.3 4.34 -2 4 C-2.33 4.99 -2.66 5.98 -3 7 C-5.5625 8.1875 -5.5625 8.1875 -8 9 C-8 8.34 -8 7.68 -8 7 C-6.25 5.2734375 -6.25 5.2734375 -4 3.375 C-3.2575 2.74335937 -2.515 2.11171875 -1.75 1.4609375 C-1.1725 0.97882812 -0.595 0.49671875 0 0 Z " fill="#ACACAF" transform="translate(149,60)"/>
<path d="M0 0 C1.29608947 0.93137592 2.58671632 1.8703566 3.875 2.8125 C4.59429687 3.33457031 5.31359375 3.85664062 6.0546875 4.39453125 C8 6 8 6 10 9 C9.01 9 8.02 9 7 9 C7 8.34 7 7.68 7 7 C4.36 6.34 1.72 5.68 -1 5 C-0.67 3.35 -0.34 1.7 0 0 Z " fill="#4C7C99" transform="translate(131,87)"/>
<path d="M0 0 C3 1.625 3 1.625 6 4 C6.375 7.25 6.375 7.25 6 10 C5.67 8.68 5.34 7.36 5 6 C3.35 6 1.7 6 0 6 C0 4.02 0 2.04 0 0 Z " fill="#578BAE" transform="translate(176,126)"/>
<path d="M0 0 C0.66 0.33 1.32 0.66 2 1 C1.23883449 2.15227823 0.46567307 3.2966386 -0.3125 4.4375 C-0.74175781 5.07558594 -1.17101562 5.71367188 -1.61328125 6.37109375 C-3 8 -3 8 -6 9 C-6 5 -6 5 -4.6875 3.515625 C-3.125 2.34375 -1.5625 1.171875 0 0 Z " fill="#A3A4B2" transform="translate(163,48)"/>
<path d="M0 0 C0.66 0 1.32 0 2 0 C2.33 0.66 2.66 1.32 3 2 C3.99 1.67 4.98 1.34 6 1 C6.33 2.65 6.66 4.3 7 6 C6.01 6.495 6.01 6.495 5 7 C2.5 5.1875 2.5 5.1875 0 3 C0 2.01 0 1.02 0 0 Z " fill="#B89477" transform="translate(18,23)"/>
<path d="M0 0 C1.31611677 0.95336021 2.62778961 1.91285774 3.9375 2.875 C4.66839844 3.40867187 5.39929688 3.94234375 6.15234375 4.4921875 C8 6 8 6 9 8 C6.31325398 7.63692621 4.44127696 7.33095772 2.25 5.6875 C0.8489761 3.79611774 0.50646641 2.27440936 0 0 Z " fill="#4E7997" transform="translate(155,108)"/>
<path d="M0 0 C3.53372712 1.96318174 6.24479785 4.04070881 9 7 C7.02 7 5.04 7 3 7 C3.33 6.01 3.66 5.02 4 4 C2.68 3.67 1.36 3.34 0 3 C0 2.01 0 1.02 0 0 Z " fill="#D6AE8B" transform="translate(112,61)"/>
<path d="M0 0 C1.65 1.32 3.3 2.64 5 4 C-1.28571429 6.42857143 -1.28571429 6.42857143 -5 5 C-3.35 3.35 -1.7 1.7 0 0 Z " fill="#4B768F" transform="translate(75,81)"/>
<path d="M0 0 C6.52307692 1.47692308 6.52307692 1.47692308 8.9375 4.125 C9.288125 4.74375 9.63875 5.3625 10 6 C9.01 6.33 8.02 6.66 7 7 C7 6.34 7 5.68 7 5 C6.21625 4.731875 5.4325 4.46375 4.625 4.1875 C2 3 2 3 0 0 Z " fill="#9E826B" transform="translate(72,67)"/>
<path d="M0 0 C0.66 0.33 1.32 0.66 2 1 C0.6875 3.5 0.6875 3.5 -1 6 C-1.99 6 -2.98 6 -4 6 C-4.33 6.66 -4.66 7.32 -5 8 C-5.99 7.67 -6.98 7.34 -8 7 C-7.34 7 -6.68 7 -6 7 C-5.67 6.01 -5.34 5.02 -5 4 C-3.37667033 2.61423077 -1.71275535 1.27358732 0 0 Z " fill="#97979C" transform="translate(134,73)"/>
<path d="M0 0 C0.33 0.66 0.66 1.32 1 2 C3.02463255 2.65213292 3.02463255 2.65213292 5 3 C5 3.66 5 4.32 5 5 C6.32 5.33 7.64 5.66 9 6 C8.67 6.99 8.34 7.98 8 9 C5.03 6.69 2.06 4.38 -1 2 C-0.67 1.34 -0.34 0.68 0 0 Z " fill="#FAE8D7" transform="translate(81,35)"/>
<path d="M0 0 C0.721875 0.474375 1.44375 0.94875 2.1875 1.4375 C4.89475226 2.94152903 6.96194275 3.56599182 10 4 C10 4.33 10 4.66 10 5 C3.9453125 5.1953125 3.9453125 5.1953125 2 5 C1.34 4.34 0.68 3.68 0 3 C0 2.01 0 1.02 0 0 Z " fill="#4480A4" transform="translate(92,95)"/>
<path d="M0 0 C1.98 0 3.96 0 6 0 C6 1.98 6 3.96 6 6 C3.97945196 4.35830472 1.97956942 2.69088222 0 1 C0 0.67 0 0.34 0 0 Z " fill="#D1DDE6" transform="translate(149,102)"/>
<path d="M0 0 C3.465 1.98 3.465 1.98 7 4 C7 4.99 7 5.98 7 7 C4.5 5.625 4.5 5.625 2 4 C2 3.34 2 2.68 2 2 C1.34 2 0.68 2 0 2 C0 1.34 0 0.68 0 0 Z " fill="#D6AC8A" transform="translate(80,37)"/>
<path d="" fill="#000000" transform="translate(0,0)"/>
<path d="" fill="#000000" transform="translate(0,0)"/>
<path d="" fill="#000000" transform="translate(0,0)"/>
<path d="" fill="#000000" transform="translate(0,0)"/>
</svg>
